<?xml version="1.0" encoding="UTF-8" standalone="no"?>
<!-- Created with Inkscape (http://www.inkscape.org/) -->

<svg
   width="210mm"
   height="210mm"
   viewBox="0 0 210 210"
   version="1.1"
   id="svg1"
   xml:space="preserve"
   sodipodi:docname="logo.svg"
   inkscape:export-filename="logo.png"
   inkscape:export-xdpi="96"
   inkscape:export-ydpi="96"
   inkscape:version="1.4 (86a8ad7, 2024-10-11)"
   xmlns:inkscape="http://www.inkscape.org/namespaces/inkscape"
   xmlns:sodipodi="http://sodipodi.sourceforge.net/DTD/sodipodi-0.dtd"
   xmlns="http://www.w3.org/2000/svg"
   xmlns:svg="http://www.w3.org/2000/svg"><sodipodi:namedview
     id="namedview1"
     pagecolor="#ffffff"
     bordercolor="#000000"
     borderopacity="0.25"
     inkscape:showpageshadow="2"
     inkscape:pageopacity="0.0"
     inkscape:pagecheckerboard="0"
     inkscape:deskcolor="#d1d1d1"
     inkscape:document-units="mm"
     inkscape:zoom="0.36302259"
     inkscape:cx="-369.12304"
     inkscape:cy="535.77933"
     inkscape:window-width="1920"
     inkscape:window-height="1017"
     inkscape:window-x="-8"
     inkscape:window-y="-8"
     inkscape:window-maximized="1"
     inkscape:current-layer="layer1" /><defs
     id="defs1" /><g
     inkscape:label="图层 1"
     inkscape:groupmode="layer"
     id="layer1"><g
       id="g13"
       transform="translate(-0.29436393,-0.09518817)"><g
         id="g2"><circle
           style="fill:#f7bd0c;fill-opacity:1;stroke-width:0.279147"
           id="path1"
           cx="105.2991"
           cy="105.13435"
           r="104.76993" /><circle
           style="fill:#e09d1f;fill-opacity:1;stroke-width:0.256815"
           id="path1-4"
           cx="105.28386"
           cy="105.39004"
           r="96.388336" /><circle
           style="fill:#ede6be;fill-opacity:1;stroke-width:0.250018"
           id="path1-4-7"
           cx="105.40382"
           cy="105.35371"
           r="93.837418" /><circle
           style="fill:#f9f6e4;fill-opacity:1;stroke-width:0.202927"
           id="path1-4-7-2"
           cx="92.839249"
           cy="93.688049"
           r="76.163185" /></g><g
         id="g12"
         transform="matrix(2.3230766,0,0,2.3230766,306.26038,-266.23566)"
         style="stroke:#1a1a1a;stroke-width:0.856945;stroke-dasharray:none"><g
           id="g14"
           style="stroke-width:0.43046364;stroke-dasharray:none;stroke:#552200"><path
             style="fill:#a05a2c;fill-opacity:1;stroke:#552200;stroke-width:0.43046364;stroke-dasharray:none"
             d="m -98.157396,168.90682 -15.234304,-3.21459 c 0,0 -1.89444,1.22272 -0.54126,3.60381 l 19.621003,1.8019 z"
             id="path4" /><path
             style="fill:#a05a2c;fill-opacity:1;stroke:#552200;stroke-width:0.43046364;stroke-dasharray:none"
             d="m -95.406706,170.90749 -23.771154,-2.38356 c 0,0 -4.63827,4.31617 0.45095,9.53423 l 18.16656,-0.45094 8.567927,-5.3469 z"
             id="path5" /><path
             style="fill:#a05a2c;fill-opacity:1;stroke:#552200;stroke-width:0.43046364;stroke-dasharray:none"
             d="m -80.396738,170.32771 20.228025,-1.93262 c 0,0 2.319137,4.25175 0.644205,6.44205 L -87.35415,172.518 Z"
             id="path12" /><g
             id="g11"
             style="stroke:#552200;stroke-width:0.43046364;stroke-dasharray:none"><path
               style="fill:#a05a2c;fill-opacity:1;stroke:#552200;stroke-width:0.43046364;stroke-dasharray:none"
               d="m -84.004284,172.77568 27.185435,0.25769 -0.515364,9.79191 -27.185434,-6.69973 z"
               id="path10" /><ellipse
               style="fill:#a05a2c;fill-opacity:1;stroke:#552200;stroke-width:0.43046364;stroke-dasharray:none"
               id="path11"
               cx="-56.625351"
               cy="177.90176"
               rx="4.1910119"
               ry="4.9273143" /></g><g
             id="g10"
             style="stroke:#552200;stroke-width:0.43046364;stroke-dasharray:none"><path
               style="fill:#a05a2c;fill-opacity:1;stroke:#552200;stroke-width:0.43046364;stroke-dasharray:none"
               d="m -89.286762,173.03337 11.595682,15.71859 5.540161,-7.60161 -13.270616,-10.17844 z"
               id="path8" /><ellipse
               style="fill:#a05a2c;fill-opacity:1;stroke:#552200;stroke-width:0.43210965;stroke-dasharray:none"
               id="path9"
               cx="60.563553"
               cy="183.04912"
               rx="4.1643691"
               ry="4.7353673"
               transform="matrix(0.6887136,0.7250335,-0.6347493,0.77271814,0,0)" /></g><g
             id="g9"
             style="stroke:#552200;stroke-width:0.43046364;stroke-dasharray:none"><path
               style="fill:#a05a2c;fill-opacity:1;stroke:#552200;stroke-width:0.43046364;stroke-dasharray:none"
               d="m -109.77247,181.0215 18.681935,-9.66307 c 0,0 3.736385,-0.25768 3.736385,3.47871 l -16.74932,13.78598 z"
               id="path6" /><ellipse
               style="fill:#a05a2c;fill-opacity:1;stroke:#552200;stroke-width:0.4310429;stroke-dasharray:none"
               id="path7"
               cx="-186.16219"
               cy="119.75111"
               rx="4.1049876"
               ry="4.7019644"
               transform="matrix(0.89912445,-0.43769308,0.50237287,0.86465109,0,0)" /></g></g><g
           id="g3"
           style="stroke:none;stroke-width:0.856945;stroke-dasharray:none"
           transform="translate(-27.331289,-6.195092)"><path
             style="fill:#c10d04;fill-opacity:1;stroke:none;stroke-width:0.856945;stroke-dasharray:none"
             d="m -57.720736,179.66867 c 32.403494,-9.08328 9.340967,-37.94365 9.340967,-37.94365 2.447978,10.88706 -0.708625,15.52533 -0.708625,15.52533 0,0 0.128841,-5.669 -4.895955,-11.91779 -5.024796,-6.24878 -0.644205,-16.62048 -0.644205,-16.62048 -17.973308,5.669 -15.227715,23.90357 -15.227715,23.90357 -2.55092,-0.72884 -4.008593,-7.28835 -4.008593,-7.28835 -13.84785,28.78896 10.568103,33.8908 10.568103,33.8908 z"
             id="path2" /><path
             style="fill:#ea1000;fill-opacity:1;stroke:none;stroke-width:0.856945;stroke-dasharray:none"
             d="m -84.669187,173.23768 c 7.666035,-11.0159 3.671966,-15.78301 3.671966,-15.78301 -5.153637,-7.34394 -2.512398,-11.40243 -2.512398,-11.40243 -9.72749,2.44798 -7.859296,14.81671 -7.859296,14.81671 -1.997033,-2.31914 -1.932613,-5.73342 -1.932613,-5.73342 -7.215092,9.21212 3.671966,18.03773 3.671966,18.03773 z"
             id="path3"
             transform="translate(27.331289,6.195092)" /></g></g></g></g></svg>
